PathFileType	4	(X/Y/Z)	RBDS06static.trc
DataRate	CameraRate	NumFrames	NumMarkers	Units	OrigDataRate	OrigDataStartFrame	OrigNumFrames
150.000000	150.000000	4	48	mm	150.000000	93	150
Frame#	Time	L.Ankle			L.Ankle.Medial			L.ASIS			L.GTR			L.Heel.Bottom			L.Heel.Lateral			L.Heel.Top			L.HF			L.Iliac.Crest			L.Knee			L.Knee.Medial			L.MT1			L.MT2			L.MT5			L.PSIS			L.Shank.Bottom.Lateral			L.Shank.Bottom.Medial			L.Shank.Top.Lateral			L.Shank.Top.Medial			L.Thigh.Bottom.Lateral			L.Thigh.Bottom.Medial			L.Thigh.Top.Lateral			L.Thigh.Top.Medial			L.TT			R.Ankle			R.Ankle.Medial			R.ASIS			R.GTR			R.Heel.Bottom			R.Heel.Lateral			R.Heel.Top			R.HF			R.Iliac.Crest			R.Knee			R.Knee.Medial			R.MT1			R.MT2			R.MT5			R.PSIS			R.Shank.Bottom.Lateral			R.Shank.Bottom.Medial			R.Shank.Top.Lateral			R.Shank.Top.Medial			R.Thigh.Bottom.Lateral			R.Thigh.Bottom.Medial			R.Thigh.Top.Lateral			R.Thigh.Top.Medial			R.TT			
		X1	Y1	Z1	X2	Y2	Z2	X3	Y3	Z3	X4	Y4	Z4	X5	Y5	Z5	X6	Y6	Z6	X7	Y7	Z7	X8	Y8	Z8	X9	Y9	Z9	X10	Y10	Z10	X11	Y11	Z11	X12	Y12	Z12	X13	Y13	Z13	X14	Y14	Z14	X15	Y15	Z15	X16	Y16	Z16	X17	Y17	Z17	X18	Y18	Z18	X19	Y19	Z19	X20	Y20	Z20	X21	Y21	Z21	X22	Y22	Z22	X23	Y23	Z23	X24	Y24	Z24	X25	Y25	Z25	X26	Y26	Z26	X27	Y27	Z27	X28	Y28	Z28	X29	Y29	Z29	X30	Y30	Z30	X31	Y31	Z31	X32	Y32	Z32	X33	Y33	Z33	X34	Y34	Z34	X35	Y35	Z35	X36	Y36	Z36	X37	Y37	Z37	X38	Y38	Z38	X39	Y39	Z39	X40	Y40	Z40	X41	Y41	Z41	X42	Y42	Z42	X43	Y43	Z43	X44	Y44	Z44	X45	Y45	Z45	X46	Y46	Z46	X47	Y47	Z47	X48	Y48	Z48	

94	0.62	708.880615234375	108.862060546875	1042.859130859375	730.267822265625	121.0789642333984	1128.5869140625	856.5574951171875	1036.465576171875	1105.846923828125	767.168701171875	948.568603515625	1049.354248046875	638.082763671875	43.25512313842773	1078.523193359375	672.6367797851563	64.81609344482422	1038.650024414063	649.5343627929688	93.15919494628906	1082.04541015625	719.1672973632813	487.1290283203125	1038.977294921875	766.0460815429688	1106.563842773438	1066.438598632813	725.800048828125	558.1181030273438	1042.958374023438	718.2368774414063	535.6563720703125	1175.055053710938	864.6844482421875	63.74544906616211	1122.5380859375	878.8827514648438	65.17375183105469	1077.66455078125	831.7506103515625	49.57435607910156	1012.378540039063	687.4133911132813	1074.904296875	1177.895141601563	699.9567260742188	194.2484588623047	1038.612182617188	660.8818969726563	192.5459136962891	1076.403442382813	689.82568359375	273.5730590820313	1030.952026367188	652.6163940429688	273.3059997558594	1069.696044921875	729.4755859375	640.5106201171875	1033.40478515625	672.07470703125	635.9086303710938	1078.255615234375	715.9622802734375	750.3756713867188	1033.162475585938	666.6077270507813	746.3939819335938	1080.72705078125	777.4381713867188	456.5907897949219	1092.555541992188	700.8707885742188	115.7905883789063	1412.7099609375	724.0285034179688	122.5995407104492	1324.995849609375	856.7112426757813	1036.2998046875	1341.305908203125	778.00634765625	940.4987182617188	1393.0302734375	631.7444458007813	42.59120178222656	1368.839111328125	661.0694580078125	65.48561096191406	1410.496826171875	641.458251953125	91.99993133544922	1367.567993164063	722.9569702148438	491.4671630859375	1403.003173828125	787.1358642578125	1094.35791015625	1386.284057617188	731.7727661132813	550.9163818359375	1399.659057617188	730.6959228515625	533.8841552734375	1270.38916015625	857.4430541992188	66.24623870849609	1331.52001953125	859.7520141601563	72.27918243408203	1370.778930664063	819.337158203125	49.19182968139648	1443.633666992188	690.7869873046875	1073.078979492188	1275.581176757813	685.5243530273438	206.9458312988281	1412.787475585938	650.9609985351563	207.2849578857422	1374.578979492188	677.8631591796875	291.4259948730469	1417.395263671875	643.0620727539063	287.6725463867188	1376.83837890625	746.162841796875	647.2946166992188	1413.759887695313	681.5219116210938	650.3580932617188	1377.361450195313	744.6387939453125	758.0354614257813	1420.41162109375	684.9542846679688	760.61474609375	1382.528076171875	777.3375854492188	457.5060424804688	1356.658081054688	
95	0.6266666666666667	708.8839111328125	108.8678665161133	1042.863037109375	730.2706298828125	121.0784378051758	1128.586303710938	856.577392578125	1036.463012695313	1105.83642578125	767.1878662109375	948.5725708007813	1049.346435546875	638.0818481445313	43.26229095458984	1078.5107421875	672.6368408203125	64.81991577148438	1038.644409179688	649.5314331054688	93.16684722900391	1082.045288085938	719.1766967773438	487.1266784667969	1038.961059570313	766.0797729492188	1106.57080078125	1066.425415039063	725.8355102539063	558.123046875	1042.963745117188	718.2584838867188	535.6661987304688	1175.0458984375	864.6892700195313	63.74278259277344	1122.539672851563	878.87939453125	65.16977691650391	1077.667114257813	831.7575073242188	49.57928085327148	1012.37353515625	687.4489135742188	1074.895141601563	1177.898681640625	699.9638671875	194.2510070800781	1038.614135742188	660.8900756835938	192.5544586181641	1076.39794921875	689.8340454101563	273.5718688964844	1030.948486328125	652.614501953125	273.3082275390625	1069.6953125	729.4951171875	640.5083618164063	1033.399536132813	672.102783203125	635.9102783203125	1078.25341796875	715.985107421875	750.3726806640625	1033.156005859375	666.6260986328125	746.3955688476563	1080.718383789063	777.4492797851563	456.5855407714844	1092.560668945313	700.8560791015625	115.8030776977539	1412.709838867188	724.0332641601563	122.5996398925781	1324.999755859375	856.73193359375	1036.290649414063	1341.307006835938	778.0324096679688	940.4935913085938	1393.034301757813	631.7352905273438	42.60342788696289	1368.839477539063	661.074462890625	65.48248291015625	1410.494262695313	641.4634399414063	91.99955749511719	1367.560913085938	722.9601440429688	491.4765930175781	1402.99853515625	787.1617431640625	1094.359375	1386.276733398438	731.7817993164063	550.906494140625	1399.6787109375	730.703369140625	533.9036254882813	1270.381958007813	857.44384765625	66.25196075439453	1331.518310546875	859.7534790039063	72.28464508056641	1370.784301757813	819.3269653320313	49.19511032104492	1443.635986328125	690.8162841796875	1073.073486328125	1275.559326171875	685.52587890625	206.948974609375	1412.78759765625	650.9627685546875	207.2864990234375	1374.565551757813	677.8770751953125	291.4220581054688	1417.392578125	643.0730590820313	287.6757507324219	1376.824340820313	746.1781616210938	647.2938232421875	1413.749633789063	681.539794921875	650.3526611328125	1377.358154296875	744.6622924804688	758.0390625	1420.395874023438	684.9755859375	760.6176147460938	1382.518188476563	777.3447265625	457.5067749023438	1356.648071289063	
96	0.6333333333333334	708.8886108398438	108.8664169311523	1042.848876953125	730.2684326171875	121.0737609863281	1128.589965820313	856.6002197265625	1036.455932617188	1105.835571289063	767.2179565429688	948.5689697265625	1049.327270507813	638.0892333984375	43.25625228881836	1078.511108398438	672.6411743164063	64.82279968261719	1038.64013671875	649.5394287109375	93.16558074951172	1082.040771484375	719.201171875	487.1288757324219	1038.969360351563	766.10205078125	1106.564697265625	1066.425415039063	725.8501586914063	558.1212158203125	1042.953247070313	718.2645263671875	535.66796875	1175.047241210938	864.6834106445313	63.74389266967773	1122.545532226563	878.8848266601563	65.17193603515625	1077.661743164063	831.7615356445313	49.57680130004883	1012.380798339844	687.4869995117188	1074.897094726563	1177.881591796875	699.9700317382813	194.2483367919922	1038.602416992188	660.8926391601563	192.5580902099609	1076.39208984375	689.8489379882813	273.5734252929688	1030.935791015625	652.6318969726563	273.3128967285156	1069.685546875	729.52587890625	640.5089721679688	1033.397216796875	672.1239013671875	635.9252319335938	1078.249877929688	716.0047607421875	750.3748779296875	1033.125	666.6602783203125	746.3998413085938	1080.7021484375	777.8776245117188	456.6371459960938	1092.46044921875	700.8716430664063	115.8035736083984	1412.700561523438	724.0337524414063	122.6076431274414	1324.996337890625	856.7527465820313	1036.288696289063	1341.303100585938	778.0557250976563	940.5023803710938	1393.018798828125	631.7420654296875	42.60175323486328	1368.840087890625	661.0699462890625	65.48700714111328	1410.493041992188	641.4664306640625	91.99822235107422	1367.563232421875	722.9772338867188	491.4842834472656	1403.011474609375	787.1803588867188	1094.355346679688	1386.267456054688	731.8071899414063	550.8970947265625	1399.672973632813	730.7078247070313	533.879638671875	1270.383911132813	857.4500122070313	66.25083160400391	1331.516235351563	859.74951171875	72.27740478515625	1370.787353515625	819.3265380859375	49.19644927978516	1443.635131835938	690.8462524414063	1073.069458007813	1275.567016601563	685.5372314453125	206.9488220214844	1412.779907226563	650.975830078125	207.3088073730469	1374.569458007813	677.878662109375	291.4212036132813	1417.388549804688	643.0865478515625	287.6764526367188	1376.81591796875	746.193115234375	647.2899169921875	1413.743896484375	681.5596923828125	650.358154296875	1377.334228515625	744.6862182617188	758.0399169921875	1420.404296875	685.00732421875	760.6157836914063	1382.509521484375	777.3614501953125	457.5092163085938	1356.646850585938	
97	0.64	708.888427734375	108.8744277954102	1042.844970703125	730.2723999023438	121.0854873657227	1128.586303710938	856.6243896484375	1036.46728515625	1105.819213867188	767.24755859375	948.57275390625	1049.318725585938	638.0927124023438	43.26545333862305	1078.50634765625	672.6385498046875	64.82480621337891	1038.6494140625	649.5372924804688	93.17497253417969	1082.045776367188	719.2132568359375	487.1329040527344	1038.947875976563	766.1334838867188	1106.5712890625	1066.409790039063	725.8644409179688	558.1227416992188	1042.943481445313	718.2918701171875	535.6658325195313	1175.032348632813	864.6873779296875	63.75138092041016	1122.546875	878.8910522460938	65.17151641845703	1077.65966796875	831.7557983398438	49.58230209350586	1012.373168945313	687.523681640625	1074.901000976563	1177.873901367188	699.9771728515625	194.2504577636719	1038.598999023438	660.9034423828125	192.5579833984375	1076.403198242188	689.8536987304688	273.577880859375	1030.922973632813	652.6399536132813	273.3154907226563	1069.681518554688	729.5448608398438	640.5186767578125	1033.38232421875	672.1475830078125	635.9281616210938	1078.239013671875	716.0347290039063	750.3703002929688	1033.128662109375	666.6903076171875	746.4161376953125	1080.680419921875	777.8907470703125	456.6249084472656	1092.447265625	700.86669921875	115.8039932250977	1412.694091796875	724.0355834960938	122.6062316894531	1324.990844726563	856.7787475585938	1036.2900390625	1341.295776367188	778.0790405273438	940.49609375	1393.010498046875	631.7461547851563	42.60404205322266	1368.840942382813	661.0736083984375	65.48862457275391	1410.503173828125	641.4619750976563	92.00962829589844	1367.560302734375	722.9793090820313	491.4791259765625	1402.995849609375	787.2073364257813	1094.3486328125	1386.26904296875	731.8146362304688	550.9036865234375	1399.67236328125	730.7391967773438	533.8883666992188	1270.369262695313	857.4472045898438	66.24985504150391	1331.514892578125	859.7593383789063	72.28030395507813	1370.786743164063	819.3197631835938	49.19414138793945	1443.634643554688	690.874755859375	1073.078247070313	1275.5517578125	685.5364990234375	206.9585418701172	1412.780883789063	650.9757080078125	207.3102874755859	1374.564697265625	677.8856811523438	291.4370422363281	1417.3857421875	643.0869750976563	287.6914672851563	1376.802978515625	746.2141723632813	647.29541015625	1413.7353515625	681.574462890625	650.3680419921875	1377.332641601563	744.7044067382813	758.0402221679688	1420.386596679688	685.029052734375	760.6177978515625	1382.50439453125	777.3721923828125	457.5098876953125	1356.635131835938	
